<svg width="3285" height="2060" viewBox="0 0 3285 2060" fill="none" xmlns="http://www.w3.org/2000/svg">
<g id="SkyCorner">
<g id="Subtract" filter="url(#filter0_f_2_36)">
<path fill-rule="evenodd" clip-rule="evenodd" d="M2841.16 443C1893.66 519.809 1048.3 956.622 443 1616V443H2841.16Z" fill="black"/>
<path d="M271.5 1616C271.5 1686.7 314.887 1750.16 380.77 1775.81C446.653 1801.47 521.527 1784.06 569.339 1731.98C1146.45 1103.31 1952.1 687.134 2855.02 613.939C2946.74 606.504 3016.24 528.01 3012.52 436.066C3008.8 344.122 2933.18 271.5 2841.16 271.5H443C348.283 271.5 271.5 348.283 271.5 443V1616Z" stroke="#0060B8" stroke-opacity="0.85" stroke-width="343" stroke-linejoin="round"/>
</g>
<g id="Subtract_2" filter="url(#filter1_f_2_36)">
<path fill-rule="evenodd" clip-rule="evenodd" d="M2841.16 443C1893.66 519.809 1048.3 956.622 443 1616V443H2841.16Z" fill="black"/>
<path d="M389 1616C389 1638.26 402.661 1658.24 423.406 1666.32C444.15 1674.4 467.726 1668.92 482.78 1652.52C1079.2 1002.81 1912.06 572.495 2845.53 496.823C2874.41 494.482 2896.29 469.767 2895.12 440.817C2893.95 411.866 2870.14 389 2841.16 389H443C413.177 389 389 413.177 389 443V1616Z" stroke="#1C8DF7" stroke-opacity="0.87" stroke-width="108" stroke-linejoin="round"/>
</g>
<g id="Subtract_3" filter="url(#filter2_f_2_36)">
<path fill-rule="evenodd" clip-rule="evenodd" d="M2841.16 443C1893.66 519.809 1048.3 956.622 443 1616V443H2841.16Z" fill="black"/>
<path d="M429 1616C429 1621.77 432.542 1626.95 437.92 1629.05C443.298 1631.14 449.41 1629.72 453.313 1625.47C1056.31 968.597 1898.43 533.468 2842.29 456.954C2849.78 456.347 2855.46 449.94 2855.15 442.434C2854.85 434.928 2848.67 429 2841.16 429H443C435.268 429 429 435.268 429 443V1616Z" stroke="#BBDEFF" stroke-opacity="0.95" stroke-width="28" stroke-linejoin="round"/>
</g>
<g id="Subtract_4" filter="url(#filter3_f_2_36)">
<path fill-rule="evenodd" clip-rule="evenodd" d="M2841.16 443C1893.66 519.809 1048.3 956.622 443 1616V443H2841.16Z" fill="black"/>
<path d="M449.5 449.5H2709.59C1819.43 553.745 1026.89 976.084 449.5 1599.36V449.5Z" stroke="#1C4AEB" stroke-opacity="0.85" stroke-width="13" stroke-linejoin="round"/>
</g>
</g>
<defs>
<filter id="filter0_f_2_36" x="6.10352e-05" y="0" width="3284.17" height="2059.01" filterUnits="userSpaceOnUse" color-interpolation-filters="sRGB">
<feFlood flood-opacity="0" result="BackgroundImageFix"/>
<feBlend mode="normal" in="SourceGraphic" in2="BackgroundImageFix" result="shape"/>
<feGaussianBlur stdDeviation="50" result="effect1_foregroundBlur_2_36"/>
</filter>
<filter id="filter1_f_2_36" x="276" y="276" width="2732.16" height="1507" filterUnits="userSpaceOnUse" color-interpolation-filters="sRGB">
<feFlood flood-opacity="0" result="BackgroundImageFix"/>
<feBlend mode="normal" in="SourceGraphic" in2="BackgroundImageFix" result="shape"/>
<feGaussianBlur stdDeviation="29.5" result="effect1_foregroundBlur_2_36"/>
</filter>
<filter id="filter2_f_2_36" x="382" y="382" width="2520.16" height="1295" filterUnits="userSpaceOnUse" color-interpolation-filters="sRGB">
<feFlood flood-opacity="0" result="BackgroundImageFix"/>
<feBlend mode="normal" in="SourceGraphic" in2="BackgroundImageFix" result="shape"/>
<feGaussianBlur stdDeviation="16.5" result="effect1_foregroundBlur_2_36"/>
</filter>
<filter id="filter3_f_2_36" x="418" y="418" width="2448.16" height="1223" filterUnits="userSpaceOnUse" color-interpolation-filters="sRGB">
<feFlood flood-opacity="0" result="BackgroundImageFix"/>
<feBlend mode="normal" in="SourceGraphic" in2="BackgroundImageFix" result="shape"/>
<feGaussianBlur stdDeviation="12.5" result="effect1_foregroundBlur_2_36"/>
</filter>
</defs>
</svg>
